<mxfile host="app.diagrams.net" modified="2023-10-19T09:23:13.220Z" agent="Mozilla/5.0 (Macintosh; Intel Mac OS X 10_15_7) AppleWebKit/537.36 (KHTML, like Gecko) Chrome/117.0.0.0 Safari/537.36" etag="1-YZ9nxzQoumAfm9_HPh" version="21.7.5" type="device">
  <diagram name="Page-1" id="Gf9fsJz3meBA7hbsjw1D">
    <mxGraphModel dx="1306" dy="689" grid="1" gridSize="10" guides="1" tooltips="1" connect="1" arrows="1" fold="1" page="1" pageScale="1" pageWidth="850" pageHeight="1100" math="0" shadow="0">
      <root>
        <mxCell id="0" />
        <mxCell id="1" parent="0" />
        <mxCell id="BFOz5gU8HaRJXHQ--Q2i-1" value="Upload users" style="rounded=0;whiteSpace=wrap;html=1;" vertex="1" parent="1">
          <mxGeometry x="60" y="90" width="120" height="60" as="geometry" />
        </mxCell>
        <mxCell id="BFOz5gU8HaRJXHQ--Q2i-2" value="LB" style="rhombus;whiteSpace=wrap;html=1;" vertex="1" parent="1">
          <mxGeometry x="240" y="90" width="80" height="80" as="geometry" />
        </mxCell>
        <mxCell id="BFOz5gU8HaRJXHQ--Q2i-3" value="" style="endArrow=classic;html=1;rounded=0;exitX=1;exitY=0.75;exitDx=0;exitDy=0;" edge="1" parent="1" source="BFOz5gU8HaRJXHQ--Q2i-1">
          <mxGeometry width="50" height="50" relative="1" as="geometry">
            <mxPoint x="190" y="180" as="sourcePoint" />
            <mxPoint x="240" y="130" as="targetPoint" />
          </mxGeometry>
        </mxCell>
        <mxCell id="BFOz5gU8HaRJXHQ--Q2i-4" value="API GATEWAY&lt;br&gt;/middleware" style="rounded=0;whiteSpace=wrap;html=1;" vertex="1" parent="1">
          <mxGeometry x="370" y="100" width="140" height="80" as="geometry" />
        </mxCell>
        <mxCell id="BFOz5gU8HaRJXHQ--Q2i-5" value="" style="endArrow=classic;html=1;rounded=0;exitX=0.925;exitY=0.563;exitDx=0;exitDy=0;exitPerimeter=0;" edge="1" parent="1" source="BFOz5gU8HaRJXHQ--Q2i-2">
          <mxGeometry width="50" height="50" relative="1" as="geometry">
            <mxPoint x="320" y="190" as="sourcePoint" />
            <mxPoint x="370" y="140" as="targetPoint" />
          </mxGeometry>
        </mxCell>
        <mxCell id="BFOz5gU8HaRJXHQ--Q2i-6" value="video preprocessing service" style="rounded=0;whiteSpace=wrap;html=1;" vertex="1" parent="1">
          <mxGeometry x="630" y="70" width="150" height="140" as="geometry" />
        </mxCell>
        <mxCell id="BFOz5gU8HaRJXHQ--Q2i-7" value="kafka" style="triangle;whiteSpace=wrap;html=1;" vertex="1" parent="1">
          <mxGeometry x="550" y="110" width="60" height="80" as="geometry" />
        </mxCell>
        <mxCell id="BFOz5gU8HaRJXHQ--Q2i-8" value="" style="endArrow=classic;html=1;rounded=0;" edge="1" parent="1" source="BFOz5gU8HaRJXHQ--Q2i-4">
          <mxGeometry width="50" height="50" relative="1" as="geometry">
            <mxPoint x="500" y="200" as="sourcePoint" />
            <mxPoint x="550" y="150" as="targetPoint" />
          </mxGeometry>
        </mxCell>
        <mxCell id="BFOz5gU8HaRJXHQ--Q2i-9" value="" style="endArrow=classic;html=1;rounded=0;exitX=0.833;exitY=0.5;exitDx=0;exitDy=0;exitPerimeter=0;" edge="1" parent="1" source="BFOz5gU8HaRJXHQ--Q2i-7">
          <mxGeometry width="50" height="50" relative="1" as="geometry">
            <mxPoint x="590" y="200" as="sourcePoint" />
            <mxPoint x="640" y="150" as="targetPoint" />
          </mxGeometry>
        </mxCell>
        <mxCell id="BFOz5gU8HaRJXHQ--Q2i-10" value="video service" style="rounded=0;whiteSpace=wrap;html=1;" vertex="1" parent="1">
          <mxGeometry x="650" y="320" width="120" height="60" as="geometry" />
        </mxCell>
        <mxCell id="BFOz5gU8HaRJXHQ--Q2i-11" value="" style="endArrow=classic;html=1;rounded=0;exitX=0.407;exitY=0.986;exitDx=0;exitDy=0;exitPerimeter=0;entryX=0.392;entryY=-0.017;entryDx=0;entryDy=0;entryPerimeter=0;" edge="1" parent="1" source="BFOz5gU8HaRJXHQ--Q2i-6" target="BFOz5gU8HaRJXHQ--Q2i-10">
          <mxGeometry width="50" height="50" relative="1" as="geometry">
            <mxPoint x="730" y="300" as="sourcePoint" />
            <mxPoint x="780" y="250" as="targetPoint" />
          </mxGeometry>
        </mxCell>
        <mxCell id="BFOz5gU8HaRJXHQ--Q2i-12" value="s3&amp;nbsp;" style="ellipse;whiteSpace=wrap;html=1;" vertex="1" parent="1">
          <mxGeometry x="700" y="400" width="120" height="80" as="geometry" />
        </mxCell>
        <mxCell id="BFOz5gU8HaRJXHQ--Q2i-13" value="mongo for stroing video" style="rounded=0;whiteSpace=wrap;html=1;" vertex="1" parent="1">
          <mxGeometry x="550" y="410" width="120" height="60" as="geometry" />
        </mxCell>
        <mxCell id="BFOz5gU8HaRJXHQ--Q2i-14" value="" style="endArrow=classic;html=1;rounded=0;exitX=1;exitY=0.5;exitDx=0;exitDy=0;" edge="1" parent="1" source="BFOz5gU8HaRJXHQ--Q2i-13">
          <mxGeometry width="50" height="50" relative="1" as="geometry">
            <mxPoint x="660" y="490" as="sourcePoint" />
            <mxPoint x="710" y="440" as="targetPoint" />
          </mxGeometry>
        </mxCell>
        <mxCell id="BFOz5gU8HaRJXHQ--Q2i-15" value="" style="endArrow=classic;html=1;rounded=0;exitX=0.008;exitY=0.883;exitDx=0;exitDy=0;exitPerimeter=0;entryX=0.558;entryY=-0.017;entryDx=0;entryDy=0;entryPerimeter=0;" edge="1" parent="1" source="BFOz5gU8HaRJXHQ--Q2i-10" target="BFOz5gU8HaRJXHQ--Q2i-13">
          <mxGeometry width="50" height="50" relative="1" as="geometry">
            <mxPoint x="520" y="370" as="sourcePoint" />
            <mxPoint x="570" y="320" as="targetPoint" />
          </mxGeometry>
        </mxCell>
        <mxCell id="BFOz5gU8HaRJXHQ--Q2i-16" value="Notification service" style="rounded=0;whiteSpace=wrap;html=1;" vertex="1" parent="1">
          <mxGeometry x="410" y="250" width="120" height="60" as="geometry" />
        </mxCell>
        <mxCell id="BFOz5gU8HaRJXHQ--Q2i-17" value="" style="endArrow=classic;html=1;rounded=0;exitX=0.047;exitY=1;exitDx=0;exitDy=0;exitPerimeter=0;entryX=1;entryY=0.75;entryDx=0;entryDy=0;" edge="1" parent="1" source="BFOz5gU8HaRJXHQ--Q2i-6" target="BFOz5gU8HaRJXHQ--Q2i-16">
          <mxGeometry width="50" height="50" relative="1" as="geometry">
            <mxPoint x="540" y="350" as="sourcePoint" />
            <mxPoint x="590" y="300" as="targetPoint" />
          </mxGeometry>
        </mxCell>
        <mxCell id="BFOz5gU8HaRJXHQ--Q2i-18" value="" style="endArrow=classic;html=1;rounded=0;" edge="1" parent="1">
          <mxGeometry width="50" height="50" relative="1" as="geometry">
            <mxPoint x="400" y="290" as="sourcePoint" />
            <mxPoint x="120" y="150" as="targetPoint" />
          </mxGeometry>
        </mxCell>
        <mxCell id="BFOz5gU8HaRJXHQ--Q2i-19" value="FAILURE" style="text;html=1;align=center;verticalAlign=middle;resizable=0;points=[];autosize=1;strokeColor=none;fillColor=none;" vertex="1" parent="1">
          <mxGeometry x="545" y="248" width="70" height="30" as="geometry" />
        </mxCell>
        <mxCell id="BFOz5gU8HaRJXHQ--Q2i-20" value="" style="endArrow=classic;html=1;rounded=0;exitX=-0.042;exitY=0.617;exitDx=0;exitDy=0;exitPerimeter=0;" edge="1" parent="1" source="BFOz5gU8HaRJXHQ--Q2i-10">
          <mxGeometry width="50" height="50" relative="1" as="geometry">
            <mxPoint x="470" y="370" as="sourcePoint" />
            <mxPoint x="520" y="320" as="targetPoint" />
          </mxGeometry>
        </mxCell>
        <mxCell id="BFOz5gU8HaRJXHQ--Q2i-22" value="success" style="text;html=1;strokeColor=none;fillColor=none;align=center;verticalAlign=middle;whiteSpace=wrap;rounded=0;" vertex="1" parent="1">
          <mxGeometry x="570" y="320" width="60" height="30" as="geometry" />
        </mxCell>
        <mxCell id="BFOz5gU8HaRJXHQ--Q2i-23" value="CDN" style="rounded=1;whiteSpace=wrap;html=1;" vertex="1" parent="1">
          <mxGeometry x="210" y="400" width="120" height="60" as="geometry" />
        </mxCell>
        <mxCell id="BFOz5gU8HaRJXHQ--Q2i-24" value="video search engine&lt;br&gt;service" style="rounded=0;whiteSpace=wrap;html=1;" vertex="1" parent="1">
          <mxGeometry x="520" y="520" width="120" height="60" as="geometry" />
        </mxCell>
        <mxCell id="BFOz5gU8HaRJXHQ--Q2i-25" value="Elastic search" style="rounded=0;whiteSpace=wrap;html=1;" vertex="1" parent="1">
          <mxGeometry x="670" y="520" width="120" height="60" as="geometry" />
        </mxCell>
        <mxCell id="BFOz5gU8HaRJXHQ--Q2i-26" value="" style="endArrow=classic;html=1;rounded=0;" edge="1" parent="1" source="BFOz5gU8HaRJXHQ--Q2i-24">
          <mxGeometry width="50" height="50" relative="1" as="geometry">
            <mxPoint x="620" y="600" as="sourcePoint" />
            <mxPoint x="670" y="550" as="targetPoint" />
          </mxGeometry>
        </mxCell>
        <mxCell id="BFOz5gU8HaRJXHQ--Q2i-27" value="" style="endArrow=classic;html=1;rounded=0;" edge="1" parent="1" source="BFOz5gU8HaRJXHQ--Q2i-29">
          <mxGeometry width="50" height="50" relative="1" as="geometry">
            <mxPoint x="620" y="360" as="sourcePoint" />
            <mxPoint x="460" y="450" as="targetPoint" />
          </mxGeometry>
        </mxCell>
        <mxCell id="BFOz5gU8HaRJXHQ--Q2i-28" value="" style="endArrow=classic;html=1;rounded=0;entryX=0.25;entryY=0;entryDx=0;entryDy=0;" edge="1" parent="1" target="BFOz5gU8HaRJXHQ--Q2i-24">
          <mxGeometry width="50" height="50" relative="1" as="geometry">
            <mxPoint x="470" y="450" as="sourcePoint" />
            <mxPoint x="520" y="500" as="targetPoint" />
          </mxGeometry>
        </mxCell>
        <mxCell id="BFOz5gU8HaRJXHQ--Q2i-31" value="" style="endArrow=classic;html=1;rounded=0;" edge="1" parent="1" target="BFOz5gU8HaRJXHQ--Q2i-29">
          <mxGeometry width="50" height="50" relative="1" as="geometry">
            <mxPoint x="620" y="360" as="sourcePoint" />
            <mxPoint x="460" y="450" as="targetPoint" />
          </mxGeometry>
        </mxCell>
        <mxCell id="BFOz5gU8HaRJXHQ--Q2i-29" value="kafka" style="rhombus;whiteSpace=wrap;html=1;" vertex="1" parent="1">
          <mxGeometry x="440" y="410" width="60" height="60" as="geometry" />
        </mxCell>
        <mxCell id="BFOz5gU8HaRJXHQ--Q2i-32" value="Search user" style="rounded=0;whiteSpace=wrap;html=1;" vertex="1" parent="1">
          <mxGeometry x="80" y="600" width="120" height="60" as="geometry" />
        </mxCell>
        <mxCell id="BFOz5gU8HaRJXHQ--Q2i-33" value="LB" style="rhombus;whiteSpace=wrap;html=1;" vertex="1" parent="1">
          <mxGeometry x="270" y="600" width="80" height="80" as="geometry" />
        </mxCell>
        <mxCell id="BFOz5gU8HaRJXHQ--Q2i-34" value="" style="endArrow=classic;html=1;rounded=0;exitX=1;exitY=0.75;exitDx=0;exitDy=0;" edge="1" parent="1" source="BFOz5gU8HaRJXHQ--Q2i-32">
          <mxGeometry width="50" height="50" relative="1" as="geometry">
            <mxPoint x="220" y="690" as="sourcePoint" />
            <mxPoint x="270" y="640" as="targetPoint" />
          </mxGeometry>
        </mxCell>
        <mxCell id="BFOz5gU8HaRJXHQ--Q2i-35" value="middleware / aggregatoe service" style="rounded=0;whiteSpace=wrap;html=1;" vertex="1" parent="1">
          <mxGeometry x="400" y="620" width="120" height="60" as="geometry" />
        </mxCell>
        <mxCell id="BFOz5gU8HaRJXHQ--Q2i-36" value="" style="endArrow=classic;html=1;rounded=0;" edge="1" parent="1" source="BFOz5gU8HaRJXHQ--Q2i-33">
          <mxGeometry width="50" height="50" relative="1" as="geometry">
            <mxPoint x="350" y="700" as="sourcePoint" />
            <mxPoint x="400" y="650" as="targetPoint" />
          </mxGeometry>
        </mxCell>
        <mxCell id="BFOz5gU8HaRJXHQ--Q2i-37" value="" style="endArrow=classic;html=1;rounded=0;" edge="1" parent="1">
          <mxGeometry width="50" height="50" relative="1" as="geometry">
            <mxPoint x="520" y="630" as="sourcePoint" />
            <mxPoint x="570" y="580" as="targetPoint" />
          </mxGeometry>
        </mxCell>
        <mxCell id="BFOz5gU8HaRJXHQ--Q2i-38" value="" style="endArrow=classic;html=1;rounded=0;exitX=0.75;exitY=0;exitDx=0;exitDy=0;" edge="1" parent="1" source="BFOz5gU8HaRJXHQ--Q2i-32">
          <mxGeometry width="50" height="50" relative="1" as="geometry">
            <mxPoint x="200" y="520" as="sourcePoint" />
            <mxPoint x="250" y="470" as="targetPoint" />
          </mxGeometry>
        </mxCell>
        <mxCell id="BFOz5gU8HaRJXHQ--Q2i-39" value="" style="shape=flexArrow;endArrow=classic;html=1;rounded=0;exitX=1;exitY=0.5;exitDx=0;exitDy=0;" edge="1" parent="1" source="BFOz5gU8HaRJXHQ--Q2i-35">
          <mxGeometry width="50" height="50" relative="1" as="geometry">
            <mxPoint x="660" y="430" as="sourcePoint" />
            <mxPoint x="710" y="380" as="targetPoint" />
          </mxGeometry>
        </mxCell>
        <mxCell id="BFOz5gU8HaRJXHQ--Q2i-40" value="Video&lt;br&gt;&lt;br&gt;video_id&lt;br&gt;title&lt;br&gt;metdata:{acress:}&lt;br&gt;uploaded_user_id&lt;br&gt;create_at&lt;br&gt;updated_at&lt;br&gt;overall_like&lt;br&gt;overall_dislike&lt;br&gt;overall_comment" style="text;html=1;align=center;verticalAlign=middle;resizable=0;points=[];autosize=1;strokeColor=none;fillColor=none;" vertex="1" parent="1">
          <mxGeometry x="40" y="688" width="120" height="170" as="geometry" />
        </mxCell>
        <mxCell id="BFOz5gU8HaRJXHQ--Q2i-41" value="video_chunk&lt;br&gt;&lt;br&gt;video_chunk_id&lt;br&gt;video_id&lt;br&gt;s3_url&lt;br&gt;created_at&lt;br&gt;updated_at&lt;br&gt;metaData" style="text;html=1;align=center;verticalAlign=middle;resizable=0;points=[];autosize=1;strokeColor=none;fillColor=none;" vertex="1" parent="1">
          <mxGeometry x="215" y="678" width="110" height="130" as="geometry" />
        </mxCell>
        <mxCell id="BFOz5gU8HaRJXHQ--Q2i-42" value="Elastic search we can create index according to metaData" style="text;html=1;align=center;verticalAlign=middle;resizable=0;points=[];autosize=1;strokeColor=none;fillColor=none;" vertex="1" parent="1">
          <mxGeometry x="390" y="760" width="330" height="30" as="geometry" />
        </mxCell>
        <mxCell id="BFOz5gU8HaRJXHQ--Q2i-43" value="User service" style="rounded=0;whiteSpace=wrap;html=1;" vertex="1" parent="1">
          <mxGeometry x="330" y="330" width="120" height="60" as="geometry" />
        </mxCell>
        <mxCell id="BFOz5gU8HaRJXHQ--Q2i-44" value="" style="endArrow=classic;html=1;rounded=0;exitX=0.25;exitY=0;exitDx=0;exitDy=0;" edge="1" parent="1" source="BFOz5gU8HaRJXHQ--Q2i-35">
          <mxGeometry width="50" height="50" relative="1" as="geometry">
            <mxPoint x="350" y="450" as="sourcePoint" />
            <mxPoint x="400" y="400" as="targetPoint" />
          </mxGeometry>
        </mxCell>
        <mxCell id="BFOz5gU8HaRJXHQ--Q2i-45" value="validate" style="text;html=1;align=center;verticalAlign=middle;resizable=0;points=[];autosize=1;strokeColor=none;fillColor=none;" vertex="1" parent="1">
          <mxGeometry x="380" y="518" width="60" height="30" as="geometry" />
        </mxCell>
        <mxCell id="BFOz5gU8HaRJXHQ--Q2i-46" value="" style="endArrow=classic;html=1;rounded=0;exitX=0.179;exitY=1;exitDx=0;exitDy=0;exitPerimeter=0;entryX=0.392;entryY=-0.083;entryDx=0;entryDy=0;entryPerimeter=0;" edge="1" parent="1" source="BFOz5gU8HaRJXHQ--Q2i-4" target="BFOz5gU8HaRJXHQ--Q2i-43">
          <mxGeometry width="50" height="50" relative="1" as="geometry">
            <mxPoint x="360" y="260" as="sourcePoint" />
            <mxPoint x="410" y="210" as="targetPoint" />
          </mxGeometry>
        </mxCell>
        <mxCell id="BFOz5gU8HaRJXHQ--Q2i-47" value="valaidate" style="text;html=1;align=center;verticalAlign=middle;resizable=0;points=[];autosize=1;strokeColor=none;fillColor=none;" vertex="1" parent="1">
          <mxGeometry x="345" y="218" width="70" height="30" as="geometry" />
        </mxCell>
        <mxCell id="BFOz5gU8HaRJXHQ--Q2i-48" value="&lt;br&gt;&lt;br&gt;&lt;br&gt;&lt;br&gt;&lt;br&gt;&lt;br&gt;&lt;br&gt;&lt;br&gt;Like/dislike&lt;br&gt;&lt;br&gt;id&lt;br&gt;video_id&lt;br&gt;isLike&lt;br&gt;liked_by&lt;br&gt;&lt;br&gt;" style="text;html=1;align=center;verticalAlign=middle;resizable=0;points=[];autosize=1;strokeColor=none;fillColor=none;" vertex="1" parent="1">
          <mxGeometry x="60" y="788" width="80" height="230" as="geometry" />
        </mxCell>
        <mxCell id="BFOz5gU8HaRJXHQ--Q2i-49" value="comment&lt;br&gt;&lt;br&gt;id&lt;br&gt;video_id&lt;br&gt;user_id&lt;br&gt;comment_massage&lt;br&gt;comment_id" style="text;html=1;align=center;verticalAlign=middle;resizable=0;points=[];autosize=1;strokeColor=none;fillColor=none;" vertex="1" parent="1">
          <mxGeometry x="185" y="848" width="130" height="110" as="geometry" />
        </mxCell>
        <mxCell id="BFOz5gU8HaRJXHQ--Q2i-51" value="Text" style="text;html=1;align=center;verticalAlign=middle;resizable=0;points=[];autosize=1;strokeColor=none;fillColor=none;" vertex="1" parent="1">
          <mxGeometry x="85" y="1028" width="50" height="30" as="geometry" />
        </mxCell>
      </root>
    </mxGraphModel>
  </diagram>
</mxfile>
